<svg width="278" height="385" viewBox="0 0 278 385" fill="none" xmlns="http://www.w3.org/2000/svg">
<path d="M237.204 78.2039C209.015 106.393 201.708 113.7 157.922 157.486C114.135 201.272 96.2579 219.15 78.6396 236.768C35.4488 193.577 35.9316 123.068 79.7179 79.2821C123.504 35.4958 194.013 35.0131 237.204 78.2039Z" fill="#0B1014"/>
<path d="M41 306.564L120.282 227.282L199.564 148C242.755 191.191 242.272 261.7 198.486 305.486C154.7 349.272 84.1908 349.755 41 306.564Z" fill="#0B1014"/>
<path d="M41 306.564L120.282 227.282L199.564 148C242.755 191.191 242.272 261.7 198.486 305.486C154.7 349.272 84.1908 349.755 41 306.564Z" stroke="black"/>
</svg>
